<svg xmlns="http://www.w3.org/2000/svg" xmlns:xlink="http://www.w3.org/1999/xlink" viewBox="0 0 235.77 218.43"><defs><style>.cls-1,.cls-3{fill:none;}.cls-2{fill:#c8eef2;}.cls-3{stroke:#005464;stroke-miterlimit:10;stroke-dasharray:4;}.cls-11,.cls-4{fill:#1e0f00;}.cls-10,.cls-4{opacity:0.2;}.cls-5{fill:#0091a2;}.cls-6{fill:#00b8ca;}.cls-7{fill:#00727e;}.cls-8{fill:#25d7f4;}.cls-9{fill:#00a1c5;}.cls-12{clip-path:url(#clip-path);}.cls-13{fill:#2a2d34;}.cls-14{fill:#d9a78c;}.cls-15{fill:#eac0a7;}.cls-16{fill:#f2d7bc;}.cls-17{fill:#690102;}.cls-18{fill:#2f343a;}.cls-19{fill:#b9c7d0;}.cls-20{fill:#129e95;}.cls-21{fill:#3a404c;}.cls-22{fill:#fff;}.cls-23{fill:#f6a100;}.cls-24{fill:#ed9a00;}.cls-25{clip-path:url(#clip-path-2);}.cls-26{fill:#c74043;}.cls-27{fill:#553828;}.cls-28{fill:#0f958c;}.cls-29{fill:#ffb4b1;}.cls-30{clip-path:url(#clip-path-3);}.cls-31{fill:#461811;}.cls-32{fill:#eac8ad;}.cls-33{fill:#eb1a3a;}.cls-34{fill:#c5132d;}.cls-35{fill:#eb536d;}.cls-36{clip-path:url(#clip-path-4);}.cls-37{fill:#482b1b;}.cls-38{fill:#a37250;}.cls-39{fill:#cc9671;}.cls-40{fill:#af7e5d;}.cls-41{fill:#faa21c;}.cls-42{fill:#f68e1f;}.cls-43{fill:#39b54a;}.cls-44{fill:#e0eaff;}</style><clipPath id="clip-path" transform="translate(0 0)"><circle class="cls-1" cx="187.15" cy="54.05" r="19.91" transform="translate(65.92 206.53) rotate(-67.62)"/></clipPath><clipPath id="clip-path-2" transform="translate(0 0)"><circle class="cls-1" cx="67.89" cy="181.15" r="22.14" transform="translate(-125.47 175.01) rotate(-67.64)"/></clipPath><clipPath id="clip-path-3" transform="translate(0 0)"><circle class="cls-1" cx="187.15" cy="163.44" r="17.7"/></clipPath><clipPath id="clip-path-4" transform="translate(0 0)"><circle class="cls-1" cx="116.31" cy="14.54" r="14.54"/></clipPath></defs><g id="Layer_2" data-name="Layer 2"><g id="OBJECTS"><circle class="cls-2" cx="129.76" cy="113.47" r="87.89"/><circle class="cls-3" cx="130.97" cy="113.63" r="104.3"/><path class="cls-4" d="M167.18,100.43a2.16,2.16,0,0,0-.4-1.16,3.11,3.11,0,0,0-2.55-1.21H156.3v1.21h0v1.16h0v1.14H153a4.45,4.45,0,0,0-4.37,3.63V88.78h0V62.91h0c0-9.1-8.94-16.49-20-16.49s-20,7.39-20,16.49c0,.28,0,.57,0,.85v45.34h0v2.19H106v28.2h0v1.28h0v.05c0,.31,0,.63,0,.95,0,10.18,10,18.44,22.34,18.44A26,26,0,0,0,139,157.94c6.93-3.13,11.63-9.2,11.63-16.18v0h0V111.28h-2.07v-4.45a4.45,4.45,0,0,0,3.63,3.56V142.7h0v.06c-.43,10.58-11,19.05-23.88,19.05s-23.45-8.47-23.88-19.05v-.06h-.07V110.45a4.44,4.44,0,0,0-.13-8.88h-2.67v-1.14h0V99.27h0V98.06H93.64a3.11,3.11,0,0,0-2.54,1.21,2.11,2.11,0,0,0-.4,1.16v10.43a2.07,2.07,0,0,0,.4,1.15,3.08,3.08,0,0,0,2.54,1.21h7.93v28.36q0,.57,0,1.14c0,11.16,10,20.38,23,21.89v14.31H116.8a8.42,8.42,0,0,0-6,2.19l-1.66,1.81c-.74.8,0,2,1.17,2h36.08c1.27,0,1.95-1.25,1.09-2l-2.19-2a8.76,8.76,0,0,0-5.77-1.91h-7.1V164.58c12.88-1.6,22.75-10.78,22.75-21.86v0h0V110.46h1.18v.4h0V112h0v1.21h7.93a3.09,3.09,0,0,0,2.55-1.21,2.16,2.16,0,0,0,.4-1.15V100.43Z" transform="translate(0 0)"/><path class="cls-5" d="M148.69,183.05H112.62c-1.22,0-1.92-1.16-1.18-2l1.67-1.8a8.37,8.37,0,0,1,6-2.2h22.67a8.73,8.73,0,0,1,5.76,1.91l2.2,2C150.64,181.8,150,183.05,148.69,183.05Z" transform="translate(0 0)"/><rect class="cls-5" x="126.92" y="162" width="7.8" height="18.63"/><path class="cls-6" d="M151,61.09v49.45H111V61.92c0-.28,0-.56,0-.85,0-9.1,8.94-16.48,20-16.48S151,52,151,61.07v0Z" transform="translate(0 0)"/><path class="cls-5" d="M154.59,107.16v33.72h0a.11.11,0,0,1,0,.05c-.42,10.58-10.95,19-23.88,19s-23.45-8.47-23.88-19v-.05h-.06V107.16h-2.81v32.6c0,.37,0,.75,0,1.13,0,12.22,12,22.12,26.79,22.12s26.79-9.9,26.79-22.12h0V107.16Z" transform="translate(0 0)"/><path class="cls-6" d="M153,109.45v30.46h0v0c0,7-4.69,13.06-11.62,16.19a26.22,26.22,0,0,1-10.72,2.25c-12.34,0-22.34-8.26-22.34-18.44,0-.32,0-.63,0-1V109.45Z" transform="translate(0 0)"/><path class="cls-5" d="M155.33,99.75h3.32a0,0,0,0,1,0,0v8.89a0,0,0,0,1,0,0h-3.32a4.44,4.44,0,0,1-4.44-4.44v0A4.44,4.44,0,0,1,155.33,99.75Z"/><path class="cls-5" d="M107.72,99.75H111a0,0,0,0,1,0,0v8.89a0,0,0,0,1,0,0h-3.32a4.44,4.44,0,0,1-4.44-4.44v0A4.44,4.44,0,0,1,107.72,99.75Z" transform="translate(214.32 208.38) rotate(180)"/><path class="cls-5" d="M93.05,98.67V109a2.19,2.19,0,0,0,.4,1.16,3.11,3.11,0,0,0,2.55,1.2h7.93V96.24H96a3.11,3.11,0,0,0-2.55,1.2,2.19,2.19,0,0,0-.4,1.16Z" transform="translate(0 0)"/><path class="cls-7" d="M93.05,98.6h10.89V97.44H93.45A2.19,2.19,0,0,0,93.05,98.6Z" transform="translate(0 0)"/><rect class="cls-7" x="93.08" y="99.76" width="10.86" height="1.16" transform="translate(197.01 200.68) rotate(180)"/><rect class="cls-7" x="93.08" y="102.08" width="10.86" height="1.16" transform="translate(197.01 205.31) rotate(180)"/><rect class="cls-7" x="93.08" y="104.4" width="10.86" height="1.16" transform="translate(197.01 209.95) rotate(180)"/><rect class="cls-7" x="93.08" y="106.71" width="10.86" height="1.16" transform="translate(197.01 214.58) rotate(180)"/><path class="cls-7" d="M93.05,109a2.19,2.19,0,0,0,.4,1.16h10.49V109Z" transform="translate(0 0)"/><path class="cls-5" d="M169.53,109V98.6a2.11,2.11,0,0,0-.4-1.16,3.1,3.1,0,0,0-2.54-1.2h-7.94v15.15h7.94a3.1,3.1,0,0,0,2.54-1.2,2.11,2.11,0,0,0,.4-1.16Z" transform="translate(0 0)"/><path class="cls-7" d="M169.53,109H158.65v1.16h10.48A2.11,2.11,0,0,0,169.53,109Z" transform="translate(0 0)"/><rect class="cls-7" x="158.65" y="106.71" width="10.86" height="1.16"/><rect class="cls-7" x="158.65" y="104.4" width="10.86" height="1.16"/><rect class="cls-7" x="158.65" y="102.08" width="10.86" height="1.16"/><rect class="cls-7" x="158.65" y="99.76" width="10.86" height="1.16"/><path class="cls-7" d="M169.53,98.6a2.11,2.11,0,0,0-.4-1.16H158.65V98.6Z" transform="translate(0 0)"/><path class="cls-7" d="M134.4,115.84c0,1.7-1.66,3.07-3.71,3.07s-3.72-1.37-3.72-3.07,1.66-3.07,3.72-3.07S134.4,114.15,134.4,115.84Z" transform="translate(0 0)"/><rect class="cls-8" x="108.37" y="137.65" width="33.26" height="1.28"/><path class="cls-9" d="M151,87l-.34.17A32.7,32.7,0,0,0,142,107.26H111v2.23H151v0h0Z" transform="translate(0 0)"/><path class="cls-9" d="M153,109.45v30.46h0v0c0,7-4.69,13.06-11.62,16.19.19-13.51.49-35.53.51-45.58v-1.09Z" transform="translate(0 0)"/><rect class="cls-9" x="141.65" y="137.65" width="11.36" height="1.28"/><g class="cls-10"><path class="cls-11" d="M89.57,78h-36l7.22-11.59h2.94a2.68,2.68,0,0,0,2.68-2.68V42.38a2.67,2.67,0,0,0-2.68-2.67H20.86a2.67,2.67,0,0,0-2.68,2.67V63.76a2.68,2.68,0,0,0,2.68,2.68h31.3V78H3.07A3.07,3.07,0,0,0,0,81.1v28.57a3.06,3.06,0,0,0,3.07,3.07H75.9l6,11.81a1,1,0,0,0,1.86-.45V112.74h5.81a3.06,3.06,0,0,0,3.06-3.07V81.1A3.07,3.07,0,0,0,89.57,78Z" transform="translate(0 0)"/><path class="cls-11" d="M230.49,112.78h-42.4a3.33,3.33,0,0,0-3.33,3.33v20.53a3.33,3.33,0,0,0,3.32,3.33h3.62v8.9a.77.77,0,0,0,1.46.35l4.7-9.25h32.63a3.34,3.34,0,0,0,3.33-3.33V116.11A3.34,3.34,0,0,0,230.49,112.78Z" transform="translate(0 0)"/></g><g id="men_3" data-name="men 3"><path class="cls-9" d="M207.06,54.05A19.91,19.91,0,1,0,187.15,74,19.91,19.91,0,0,0,207.06,54.05Z" transform="translate(0 0)"/><path class="cls-9" d="M207.06,54.05a19.91,19.91,0,0,0-19.91-19.91V74A19.91,19.91,0,0,0,207.06,54.05Z" transform="translate(0 0)"/><g class="cls-12"><path class="cls-13" d="M190.77,62.89s5.55.81,6.37,1.66,2.19,7.86,2.54,9.42H187.15V63.87Z" transform="translate(0 0)"/><rect class="cls-14" x="184.24" y="59.21" width="5.83" height="6.39"/><path class="cls-15" d="M187.15,40.78c2.83,0,7.31,1.61,7.31,9.15,0,4.36-1.42,7.21-2,8a10.8,10.8,0,0,1-5.27,2.27Z" transform="translate(0 0)"/><path class="cls-15" d="M195.87,51.73c.12-1.21-.45-2.28-1.28-2.39s-1.61.77-1.74,2,.45,2.27,1.28,2.38S195.74,52.93,195.87,51.73Z" transform="translate(0 0)"/><path class="cls-16" d="M187.15,40.78c-2.83,0-7.31,1.61-7.31,9.15,0,4.36,1.42,7.21,2,8a10.8,10.8,0,0,0,5.27,2.27Z" transform="translate(0 0)"/><path class="cls-16" d="M178.43,51.73c-.12-1.21.45-2.28,1.29-2.39s1.61.77,1.73,2-.45,2.27-1.28,2.38S178.56,52.93,178.43,51.73Z" transform="translate(0 0)"/><path class="cls-17" d="M183.34,42.36s-2.48,2.93-1.53,5.67c.16,3.26-.16,4.36-1.21,5.26.26-3.16,0-4.21-1.21-3.84C178.92,47,179.94,40.31,183.34,42.36Z" transform="translate(0 0)"/><path class="cls-17" d="M191,42.36s2.47,2.93,1.52,5.67c-.16,3.26.16,4.36,1.21,5.26-.26-3.16,0-4.21,1.21-3.84C195.37,47,194.34,40.31,191,42.36Z" transform="translate(0 0)"/><path class="cls-18" d="M183.53,62.89s-5.55.81-6.37,1.66S175,72.41,174.63,74h12.52V63.87Z" transform="translate(0 0)"/><polyline class="cls-19" points="190.84 62.74 187.15 63.49 183.46 62.74 187.15 73.97"/><polygon class="cls-20" points="186.84 65.01 186.24 72.6 187.15 73.97 188.06 72.6 187.46 65.01 186.84 65.01"/><path class="cls-21" d="M184.49,67.58l-2.93-4.35a14.43,14.43,0,0,1,2.57-.66l3,11.4-4.24-6.07Z" transform="translate(0 0)"/><path class="cls-21" d="M189.81,67.58l2.94-4.35a14.76,14.76,0,0,0-2.58-.66l-3,11.4,4.24-6.07Z" transform="translate(0 0)"/><path class="cls-20" d="M188.15,64.52l-1,1-1-1,1-1Z" transform="translate(0 0)"/><polygon class="cls-22" points="187.15 63.49 190.11 62 191.64 62.89 188.47 65.42 187.15 63.49"/><polygon class="cls-22" points="187.15 63.49 184.19 62 182.66 62.89 185.78 65.42 187.15 63.49"/><path class="cls-17" d="M194.14,43.64c-1.17-4.78-8.26-8.54-13.25-1A2,2,0,0,0,182,44.79s.93-2.18,5.2-1.18c2.13-.46,4.2-.81,5.15,1.16S194.14,43.64,194.14,43.64Z" transform="translate(0 0)"/><path class="cls-17" d="M191.34,57c-1.46,0-2.51-1.19-4.19-1.19S184.43,57,183,57s-2.61-2.77-2.92-3.74a12.45,12.45,0,0,0,1.84,5.23,10.8,10.8,0,0,0,5.27,2.27h0a10.8,10.8,0,0,0,5.27-2.27,12.17,12.17,0,0,0,1.84-5.23C194,54.2,193,57,191.34,57Z" transform="translate(0 0)"/><path class="cls-22" d="M187.15,58.3c.5,0,.9-.21.9-.47h-1.79C186.26,58.09,186.66,58.3,187.15,58.3Z" transform="translate(0 0)"/></g></g><g id="men_5" data-name="men 5"><path class="cls-23" d="M90,181.15a22.14,22.14,0,1,0-22.14,22.14A22.13,22.13,0,0,0,90,181.15Z" transform="translate(0 0)"/><path class="cls-24" d="M90,181.15A22.13,22.13,0,0,0,67.89,159v44.27A22.14,22.14,0,0,0,90,181.15Z" transform="translate(0 0)"/><g class="cls-25"><rect class="cls-14" x="64.73" y="186.73" width="6.48" height="7.11"/><path class="cls-26" d="M71.17,190.52h1.11c2.06.53,4.31.9,5.81,2.64.94,1.08,2.56,10.13,2.56,10.13H67.93V193.05C69.72,193.05,71.17,191.91,71.17,190.52Z" transform="translate(0 0)"/><path class="cls-26" d="M64.69,190.52h-1.1c-2.06.53-4.32.9-5.82,2.64-.93,1.08-2.56,10.13-2.56,10.13H67.93V193.05C66.14,193.05,64.69,191.91,64.69,190.52Z" transform="translate(0 0)"/><path class="cls-15" d="M68,166.39c3.15,0,8.13,1.79,8.13,10.18,0,4.84-1.58,8-2.27,8.89A12,12,0,0,1,68,188Z" transform="translate(0 0)"/><path class="cls-15" d="M77.66,178.57c.14-1.34-.5-2.53-1.42-2.66s-1.79.86-1.93,2.2.5,2.53,1.43,2.65S77.52,179.91,77.66,178.57Z" transform="translate(0 0)"/><path class="cls-16" d="M68,166.39c-3.14,0-8.12,1.79-8.12,10.18,0,4.84,1.58,8,2.26,8.89A12,12,0,0,0,68,188Z" transform="translate(0 0)"/><path class="cls-16" d="M58.28,178.57c-.14-1.34.5-2.53,1.43-2.66s1.79.86,1.93,2.2-.5,2.53-1.43,2.65S58.42,179.91,58.28,178.57Z" transform="translate(0 0)"/><path class="cls-22" d="M68,184.82c1.47,0,2.66-.48,2.66-1.08H65.32C65.32,184.34,66.51,184.82,68,184.82Z" transform="translate(0 0)"/><path class="cls-27" d="M74.52,177.23a1.76,1.76,0,0,1,1.72-1.32h0a5.29,5.29,0,0,0,0-3.43c-2.34-6.67.32-7.86.32-7.86A7.43,7.43,0,0,0,72,166.17a15.23,15.23,0,0,1,2-2.71s-2.92-.62-6,2.57a9,9,0,0,1,1.53-2.62s-6.52.05-8.88,4.77a13.37,13.37,0,0,0-1.12,7.8,1,1,0,0,1,.25-.07,1.23,1.23,0,0,1,.87.22v-2.06c1.25-.56,2.57-1.25,2.5-4h9.15s-.21,3.12,2.29,3.88Z" transform="translate(0 0)"/><path class="cls-28" d="M67.93,193.87c2.4,0,4.35-1.5,4.35-3.35H71.17c0,1.39-1.45,2.52-3.24,2.53s-3.23-1.14-3.23-2.53H63.59C63.59,192.37,65.53,193.87,67.93,193.87Z" transform="translate(0 0)"/></g></g><g id="women_3" data-name="women 3"><path class="cls-29" d="M204.85,163.44a17.7,17.7,0,1,0-17.7,17.7A17.7,17.7,0,0,0,204.85,163.44Z" transform="translate(0 0)"/><path class="cls-29" d="M204.85,163.44a17.7,17.7,0,0,0-17.7-17.71v35.41A17.7,17.7,0,0,0,204.85,163.44Z" transform="translate(0 0)"/><g class="cls-30"><path class="cls-31" d="M180.34,160.28c0,3-1.63,3-1.52,5,.13,2.17,1.83,2.18,1.83,3.67s-1.56,3.17-.18,4.78h6.69V155.61Z" transform="translate(0 0)"/><path class="cls-31" d="M194,160.28c0,3,1.63,3,1.51,5-.12,2.17-1.82,2.18-1.82,3.67s1.56,3.17.17,4.78h-6.68V155.61Z" transform="translate(0 0)"/><path class="cls-31" d="M194.94,157.22a7.75,7.75,0,1,0-7.75,7.74A7.75,7.75,0,0,0,194.94,157.22Z" transform="translate(0 0)"/><polygon class="cls-32" points="189.78 173.81 187.16 181.17 184.59 173.81 184.59 168.12 189.78 168.12 189.78 173.81"/><path class="cls-16" d="M187.19,152.37c-2.52,0-6.5,1.43-6.5,8.13a9.38,9.38,0,0,0,2.06,6.4c.5.65,3.1,2.73,4.44,2.73Z" transform="translate(0 0)"/><path class="cls-16" d="M179.44,162.1c-.11-1.07.4-2,1.14-2.12s1.43.68,1.54,1.76-.4,2-1.14,2.12S179.55,163.17,179.44,162.1Z" transform="translate(0 0)"/><path class="cls-15" d="M187.17,152.37c2.51,0,6.49,1.43,6.49,8.13a9.39,9.39,0,0,1-2,6.4c-.51.65-3.11,2.73-4.44,2.73Z" transform="translate(0 0)"/><path class="cls-15" d="M194.94,162.1c.11-1.07-.4-2-1.14-2.12s-1.43.68-1.54,1.76.39,2,1.14,2.12S194.83,163.17,194.94,162.1Z" transform="translate(0 0)"/><path class="cls-32" d="M187.15,181.17v-7.08a3.43,3.43,0,0,1-2.36-2.05,5.46,5.46,0,0,1-.19-1.35s-4.23,1.43-5.18,2.9a39.45,39.45,0,0,0-1,7.58Z" transform="translate(0 0)"/><path class="cls-32" d="M187.15,181.17v-7.08a3.41,3.41,0,0,0,2.36-2.05,5.23,5.23,0,0,0,.2-1.35s4.23,1.43,5.18,2.9a39.45,39.45,0,0,1,1,7.58Z" transform="translate(0 0)"/><path class="cls-22" d="M187.19,167.27a1.6,1.6,0,0,0,1.77-1.34h-3.55C185.41,166.67,186.21,167.27,187.19,167.27Z" transform="translate(0 0)"/><path class="cls-33" d="M187.15,178.4a66.7,66.7,0,0,1-2.55-7.71c-.71.27-1.29.44-1.73.67a27.41,27.41,0,0,0-2.18,9.81h6.46Z" transform="translate(0 0)"/><path class="cls-34" d="M187.18,178.4a68.06,68.06,0,0,0,2.56-7.71c.71.27,1.28.44,1.73.67a27.41,27.41,0,0,1,2.18,9.81h-6.47Z" transform="translate(0 0)"/><path class="cls-31" d="M186.82,150.44a5.92,5.92,0,0,0-6,5.88c-1.66,2.32.15,4.4,1.44,5.13V160.3c0-1.49,1.43-2.88,3.57-2.65,1.92.21,3.13-.88,4.15-2.72C191.24,152.46,189.66,150.44,186.82,150.44Z" transform="translate(0 0)"/><path class="cls-31" d="M189.78,154.17s1.07,4.36,4,5.81c.52-3.92.83-3.1,0-5.16s-4-3.6-4-3.6Z" transform="translate(0 0)"/></g></g><g id="women_1" data-name="women 1"><circle class="cls-35" cx="116.31" cy="14.54" r="14.54"/><path class="cls-35" d="M130.85,14.54A14.54,14.54,0,0,0,116.31,0V29.09A14.54,14.54,0,0,0,130.85,14.54Z" transform="translate(0 0)"/><g id="women_1-2" data-name="women 1"><g class="cls-36"><path class="cls-37" d="M122.68,9.43a6.37,6.37,0,1,0-6.37,6.37A6.37,6.37,0,0,0,122.68,9.43Z" transform="translate(0 0)"/><polygon class="cls-38" points="118.44 23.06 116.28 29.11 114.18 23.06 114.18 18.39 118.44 18.39 118.44 23.06"/><path class="cls-39" d="M116.31,5.45c-2.07,0-5.34,1.18-5.34,6.68a7.73,7.73,0,0,0,1.69,5.26c.42.53,2.55,2.25,3.65,2.25Z" transform="translate(0 0)"/><path class="cls-39" d="M109.94,13.45c-.09-.88.33-1.66.94-1.75s1.18.57,1.27,1.45-.33,1.66-.94,1.74S110,14.33,109.94,13.45Z" transform="translate(0 0)"/><path class="cls-40" d="M116.29,5.45c2.07,0,5.34,1.18,5.34,6.68a7.73,7.73,0,0,1-1.69,5.26c-.42.53-2.55,2.25-3.65,2.25Z" transform="translate(0 0)"/><path class="cls-40" d="M122.68,13.45c.09-.88-.33-1.66-.94-1.75s-1.17.57-1.27,1.45.33,1.66.94,1.74S122.59,14.33,122.68,13.45Z" transform="translate(0 0)"/><path class="cls-32" d="M116.28,29.11V23.3a2.85,2.85,0,0,1-1.94-1.69,4.86,4.86,0,0,1-.16-1.11s-3.47,1.17-4.25,2.39a32.36,32.36,0,0,0-.82,6.22Z" transform="translate(0 0)"/><path class="cls-32" d="M116.28,29.11V23.3a2.83,2.83,0,0,0,1.94-1.69,4.59,4.59,0,0,0,.17-1.11s3.47,1.17,4.25,2.39a32.36,32.36,0,0,1,.82,6.22Z" transform="translate(0 0)"/><path class="cls-38" d="M116.28,29.11V23.3a2.85,2.85,0,0,1-1.94-1.69,4.86,4.86,0,0,1-.16-1.11s-3.47,1.17-4.25,2.39a32.36,32.36,0,0,0-.82,6.22Z" transform="translate(0 0)"/><path class="cls-38" d="M116.28,29.11V23.3a2.83,2.83,0,0,0,1.94-1.69,4.59,4.59,0,0,0,.17-1.11s3.47,1.17,4.25,2.39a32.36,32.36,0,0,1,.82,6.22Z" transform="translate(0 0)"/><path class="cls-22" d="M116.31,17.7a1.32,1.32,0,0,0,1.46-1.11h-2.92A1.32,1.32,0,0,0,116.31,17.7Z" transform="translate(0 0)"/><path class="cls-37" d="M116,3.87a4.86,4.86,0,0,0-4.93,4.83c-1.37,1.9.13,3.61,1.18,4.21V12a2.42,2.42,0,0,1,2.93-2.18c1.58.17,2.57-.72,3.41-2.24C119.64,5.52,118.35,3.87,116,3.87Z" transform="translate(0 0)"/><path class="cls-37" d="M118.44,6.93s.88,3.58,3.3,4.77c.43-3.22.69-2.54,0-4.24s-3.3-2.95-3.3-2.95Z" transform="translate(0 0)"/><path class="cls-41" d="M122.64,22.89c-.65-1-3.17-2-4-2.3a2.37,2.37,0,0,1-4.73,0c-.82.3-3.34,1.28-4,2.3a32.36,32.36,0,0,0-.82,6.22h14.35A32.36,32.36,0,0,0,122.64,22.89Z" transform="translate(0 0)"/><path class="cls-42" d="M123.46,29.11a32.36,32.36,0,0,0-.82-6.22c-.65-1-3.17-2-4-2.3a2.36,2.36,0,0,1-2.37,2.27v6.25Z" transform="translate(0 0)"/><path class="cls-43" d="M113.14,20.89a3.18,3.18,0,0,0,6.29,0l-.78-.3a2.37,2.37,0,0,1-4.73,0Z" transform="translate(0 0)"/><path class="cls-37" d="M118.44,3.07a2.13,2.13,0,1,0-2.13,2.13A2.13,2.13,0,0,0,118.44,3.07Z" transform="translate(0 0)"/></g></g></g><rect class="cls-22" x="19.65" y="37" width="48.25" height="26.73" rx="2.68" transform="translate(87.54 100.72) rotate(180)"/><rect class="cls-22" x="2.31" y="75.32" width="91.78" height="34.71" rx="3.07"/><polygon class="cls-22" points="53.62 63.73 53.62 77.63 62.28 63.73 53.62 63.73"/><path class="cls-22" d="M85.23,108.47v12.92a1,1,0,0,1-1.87.45l-6.79-13.37Z" transform="translate(0 0)"/><path class="cls-44" d="M27.46,47.85H60.08A2.87,2.87,0,0,0,62.94,45h0a2.86,2.86,0,0,0-2.86-2.86H27.46A2.86,2.86,0,0,0,24.6,45h0A2.87,2.87,0,0,0,27.46,47.85Z" transform="translate(0 0)"/><path class="cls-44" d="M27.46,57.09H60.08a2.86,2.86,0,0,0,2.86-2.87h0a2.86,2.86,0,0,0-2.86-2.86H27.46a2.86,2.86,0,0,0-2.86,2.86h0A2.86,2.86,0,0,0,27.46,57.09Z" transform="translate(0 0)"/><rect class="cls-22" x="186.22" y="110.07" width="49.06" height="27.18" rx="3.33" transform="translate(421.5 247.33) rotate(180)"/><path class="cls-22" d="M193.17,136v10.12a.77.77,0,0,0,1.46.35L200,136Z" transform="translate(0 0)"/><path class="cls-44" d="M192.62,118.57h35.8a2.5,2.5,0,0,0,2.5-2.49h0a2.5,2.5,0,0,0-2.5-2.5h-35.8a2.5,2.5,0,0,0-2.5,2.5h0A2.5,2.5,0,0,0,192.62,118.57Z" transform="translate(0 0)"/><path class="cls-44" d="M192.62,126.48h35.8a2.5,2.5,0,0,0,2.5-2.5h0a2.5,2.5,0,0,0-2.5-2.49h-35.8a2.5,2.5,0,0,0-2.5,2.49h0A2.5,2.5,0,0,0,192.62,126.48Z" transform="translate(0 0)"/><rect class="cls-44" x="190.12" y="129.4" width="27.23" height="4.99" rx="2.49" transform="translate(407.48 263.79) rotate(180)"/><rect class="cls-9" x="12.12" y="89.16" width="1.01" height="8.14"/><rect class="cls-9" x="13.12" y="87.6" width="1.01" height="11.26"/><rect class="cls-9" x="14.13" y="85.59" width="1.01" height="15.28"/><rect class="cls-9" x="15.13" y="88.6" width="1.01" height="9.25"/><rect class="cls-9" x="16.14" y="92.42" width="1.01" height="1.61"/><rect class="cls-9" x="17.14" y="92.83" width="1.01" height="0.8"/><rect class="cls-9" x="18.15" y="90.01" width="1.01" height="6.43"/><rect class="cls-9" x="19.15" y="88.05" width="1.01" height="10.35"/><rect class="cls-9" x="20.16" y="85.89" width="1.01" height="14.67"/><rect class="cls-9" x="21.16" y="86.54" width="1.01" height="13.37"/><rect class="cls-9" x="22.17" y="87.25" width="1.01" height="11.96"/><rect class="cls-9" x="23.17" y="88.81" width="1.01" height="8.84"/><rect class="cls-9" x="24.18" y="86.29" width="1.01" height="13.87"/><rect class="cls-9" x="25.18" y="90.72" width="1.01" height="5.03"/><rect class="cls-9" x="26.19" y="88.05" width="1.01" height="10.35"/><rect class="cls-9" x="27.19" y="91.67" width="1.01" height="3.12"/><rect class="cls-9" x="28.2" y="92.37" width="1.01" height="1.71"/><rect class="cls-9" x="29.2" y="87.95" width="1.01" height="10.55"/><rect class="cls-9" x="30.21" y="86.95" width="1.01" height="12.56"/><rect class="cls-9" x="31.21" y="91.67" width="1.01" height="3.12"/><rect class="cls-9" x="32.22" y="86.19" width="1.01" height="14.07"/><rect class="cls-9" x="33.22" y="86.9" width="1.01" height="12.66"/><rect class="cls-9" x="34.23" y="87.9" width="1.01" height="10.65"/><rect class="cls-9" x="35.23" y="88.5" width="1.01" height="9.45"/><rect class="cls-9" x="36.24" y="90.61" width="1.01" height="5.23"/><rect class="cls-9" x="37.24" y="92.67" width="1.01" height="1.11"/><rect class="cls-9" x="38.25" y="92.17" width="1.01" height="2.11"/><rect class="cls-9" x="39.25" y="87.8" width="1.01" height="10.85"/><rect class="cls-9" x="40.26" y="86.14" width="1.01" height="14.17"/><rect class="cls-9" x="41.26" y="85.69" width="1.01" height="15.08"/><rect class="cls-9" x="42.27" y="86.34" width="1.01" height="13.77"/><rect class="cls-9" x="43.27" y="90.21" width="1.01" height="6.03"/><rect class="cls-9" x="44.28" y="87.8" width="1.01" height="10.85"/><rect class="cls-9" x="45.28" y="88.81" width="1.01" height="8.84"/><rect class="cls-9" x="46.29" y="90.97" width="1.01" height="4.52"/><rect class="cls-9" x="47.29" y="90.66" width="1.01" height="5.13"/><rect class="cls-9" x="48.3" y="87.45" width="1.01" height="11.56"/><rect class="cls-9" x="49.3" y="85.99" width="1.01" height="14.47"/><rect class="cls-9" x="50.31" y="89.36" width="1.01" height="7.74"/><rect class="cls-9" x="51.31" y="91.52" width="1.01" height="3.42"/><rect class="cls-9" x="52.32" y="89.76" width="1.01" height="6.93"/><rect class="cls-9" x="53.32" y="85.94" width="1.01" height="14.57"/><rect class="cls-9" x="54.33" y="86.75" width="1.01" height="12.96"/><rect class="cls-9" x="55.33" y="87.6" width="1.01" height="11.26"/><rect class="cls-9" x="56.34" y="88.3" width="1.01" height="9.85"/><rect class="cls-9" x="57.34" y="85.99" width="1.01" height="14.47"/><rect class="cls-9" x="58.35" y="89.11" width="1.01" height="8.24"/><rect class="cls-9" x="59.35" y="89.41" width="1.01" height="7.64"/><rect class="cls-9" x="60.36" y="90.16" width="1.01" height="6.13"/><rect class="cls-9" x="61.36" y="88.71" width="1.01" height="9.05"/><rect class="cls-9" x="62.37" y="90.36" width="1.01" height="5.73"/><rect class="cls-9" x="63.37" y="91.92" width="1.01" height="2.61"/><rect class="cls-9" x="64.38" y="92.47" width="1.01" height="1.51"/><rect class="cls-9" x="65.38" y="89.81" width="1.01" height="6.83"/><rect class="cls-9" x="66.39" y="85.99" width="1.01" height="14.47"/><rect class="cls-9" x="67.39" y="87.05" width="1.01" height="12.36"/><rect class="cls-9" x="68.4" y="88.65" width="1.01" height="9.15"/><rect class="cls-9" x="69.4" y="85.94" width="1.01" height="14.57"/><rect class="cls-9" x="70.41" y="90.16" width="1.01" height="6.13"/><rect class="cls-9" x="71.41" y="92.27" width="1.01" height="1.91"/><rect class="cls-9" x="72.42" y="92.88" width="1.01" height="0.7"/><rect class="cls-9" x="73.42" y="87.95" width="1.01" height="10.55"/><rect class="cls-9" x="74.43" y="85.99" width="1.01" height="14.47"/><rect class="cls-9" x="75.43" y="85.19" width="1.01" height="16.08"/><rect class="cls-9" x="76.44" y="87.6" width="1.01" height="11.26"/><rect class="cls-9" x="77.44" y="88.76" width="1.01" height="8.94"/><rect class="cls-9" x="78.45" y="86.8" width="1.01" height="12.86"/><rect class="cls-9" x="79.45" y="92.78" width="1.01" height="0.9"/><rect class="cls-9" x="80.46" y="91.47" width="1.01" height="3.52"/><rect class="cls-9" x="81.46" y="90.56" width="1.01" height="5.33"/><line class="cls-9" x1="9.6" y1="93.23" x2="84.98" y2="93.23"/><line class="cls-9" x1="12.12" y1="93.23" x2="82.47" y2="93.23"/></g></g></svg>